# xmcd CD database file
#
# Track frame offsets:
#	150
#	18196
#	38603
#	54586
#	62911
#	79122
#	105951
#	126067
#	136455
#	160075
#	175162
#
# Disc length: 2689 seconds
#
# Revision: 2
# Processed by: cddbd v1.5.2PL0 Copyright (c) Steve Scherf et al.
# Submitted via: CDex 1.70beta2
#
DISCID=820a7f0b
DTITLE=The King Size Boogiemen - Budeme kácet, pokud nemáte
DYEAR=2009
DGENRE=Blues
TTITLE0=Cut to the chase
TTITLE1=King Bee
TTITLE2=Got my mojo workin'
TTITLE3=Intro
TTITLE4=Built for comfort
TTITLE5=Stormy Monday
TTITLE6=Born in Chicago
TTITLE7=Blue suede shoes
TTITLE8=(Long) Gone
TTITLE9=Got my mojo workin'
TTITLE10=King Size Boogiemen
EXTD=YEAR: 2009
EXTT0=
EXTT1=
EXTT2=
EXTT3=
EXTT4=
EXTT5=
EXTT6=
EXTT7=
EXTT8=
EXTT9=
EXTT10=
PLAYORDER=
